<svg height="512" viewBox="0 0 64 64" width="512" xmlns="http://www.w3.org/2000/svg"><g id="Icons" fill="none" fill-rule="evenodd"><g id="Social-Media-Collection" fill="#1d63f8" transform="translate(-107 -190)"><g id="Behance" transform="translate(107 190)"><path id="Fill-198" d="m26.3266 32.881h-5.776v5.304h5.51c.828-.024 2.358-.284 2.358-2.578 0-2.754-2.092-2.726-2.092-2.726"/><path id="Fill-199" d="m41.1162 29.822c-3.066 0-3.492 3.06-3.492 3.06h6.518s.04-3.06-3.026-3.06"/><path id="Fill-200" d="m26.3264 25.3938h-.744-5.032v4.428h5.418c.936 0 1.762-.3 1.762-2.364s-1.404-2.064-1.404-2.064z"/><g id="Fill-311"><path id="Fill-201" d="m47.946 35.53h-10.284c0 3.686 3.494 3.454 3.494 3.454 3.298 0 3.182-2.134 3.182-2.134h3.492c0 5.664-6.792 5.276-6.792 5.276-8.148 0-7.624-7.586-7.624-7.586s-.008-7.624 7.624-7.624c8.032 0 6.908 8.614 6.908 8.614zm-15.316.324c0 6.056-6.304 5.858-6.304 5.858h-5.776-.17-4.38v-19.846h4.38.17 5.776c3.138 0 5.616 1.734 5.616 5.284 0 3.552-3.028 3.776-3.028 3.776 3.992 0 3.716 4.928 3.716 4.928zm4.14-12.818h8.188v2.444h-8.188zm-4.77-23.036c-17.674 0-32 14.326-32 32 0 17.672 14.326 32 32 32s32-14.328 32-32c0-17.674-14.326-32-32-32z"/></g></g></g></g></svg>