<svg id="svg8" height="512" viewBox="0 0 6.3499999 6.3500002" width="512" xmlns="http://www.w3.org/2000/svg" xmlns:svg="http://www.w3.org/2000/svg"><g id="layer1" transform="translate(0 -290.65)"><path id="path56" d="m2.6445787 291.17913c-1.1649205 0-2.11546297.94866-2.11546297 2.11379s.95054247 2.11584 2.11546297 2.11584c.4870484 0 .9350251-.16763 1.2929264-.4462l1.4276923 1.4264a.26439479.26444288 0 1 0 .3748661-.37286l-1.4282086-1.42847c.2784327-.35847.4461215-.80727.4461215-1.29471 0-1.16513-.9484771-2.11379-2.1133977-2.11379zm0 .52884c.8791707 0 1.5846611.70562 1.5846611 1.58495 0 .87932-.7054904 1.58701-1.5846611 1.58701-.8791706 0-1.5862099-.70769-1.5862099-1.58701-.0000001-.87933.7070393-1.58495 1.5862099-1.58495zm-.563848.75761a.26439479.26444288 0 0 0 -.1833023.45447l.373317.3739-.373317.3739a.26439479.26444288 0 1 0 .3728007.37493l.3738333-.3739.3733169.3739a.26507036.26511857 0 1 0 .3748661-.37493l-.3738332-.3739.3738332-.3739a.26439479.26444288 0 0 0 -.1931129-.45447.26439479.26444288 0 0 0 -.1817532.08l-.3733169.3739-.3738333-.3739a.26439479.26444288 0 0 0 -.1894984-.08z" font-variant-ligatures="normal" font-variant-position="normal" font-variant-caps="normal" font-variant-numeric="normal" font-variant-alternates="normal" font-feature-settings="normal" text-indent="0" text-align="start" text-decoration-line="none" text-decoration-style="solid" text-decoration-color="rgb(0,0,0)" text-transform="none" text-orientation="mixed" white-space="normal" shape-padding="0" isolation="auto" mix-blend-mode="normal" solid-color="rgb(0,0,0)" solid-opacity="1" vector-effect="none"/></g></svg>