<svg id="Capa_1" enable-background="new 0 0 512 512" height="512" viewBox="0 0 512 512" width="512" xmlns="http://www.w3.org/2000/svg"><path d="m475.043 376.836c16.599-33.038 25.957-70.342 25.957-109.836 0-135.31-109.69-245-245-245s-245 109.69-245 245c0 39.494 9.358 76.797 25.957 109.835z" fill="#6edb9a"/><path d="m474.693 0c-8.494 0-425.024 0-437.385 0-.743 0-1.344.602-1.344 1.344v49.205h440.073v-49.205c0-.742-.602-1.344-1.344-1.344z" fill="#33bafe"/><path d="m144.331 0c-58.92 0-103.12 0-107.023 0-.743 0-1.344.601-1.344 1.344v49.205h68.259c1.237-24.083 17.792-44.105 40.108-50.549z" fill="#00a8fd"/><path d="m476.036 71.294h-440.073v303.542c39.889 81.237 123.426 137.164 220.037 137.164s180.148-55.927 220.036-137.164z" fill="#ebf1f7"/><path d="m104.147 71.293h-68.184v303.542c16.206 33.006 39.618 61.834 68.184 84.43z" fill="#cee3f4"/><g fill="#65d2fc"><path d="m72.306 33.801c-5.593 0-10.01-4.572-10.01-9.989 0-4.626 3.225-8.831 8.05-9.811 6.112-1.241 11.96 3.472 11.96 9.811 0 5.396-4.367 9.989-10 9.989z"/><path d="m102.806 33.801c-5.556 0-10-4.509-10-9.989 0-4.683 3.242-8.836 8.04-9.811 5.984-1.215 11.95 3.313 11.95 9.811 0 5.524-4.467 9.989-9.99 9.989z"/><path d="m131.346 33.611c-4.763-.967-8.04-5.099-8.04-9.8 0-6.437 5.909-11.027 11.95-9.811 4.858.986 8.04 5.187 8.04 9.811 0 6.297-5.771 11.034-11.95 9.8z"/><path d="m447.141 31.775h-52.67c-4.143 0-7.5-3.357-7.5-7.5s3.357-7.5 7.5-7.5h52.67c4.143 0 7.5 3.357 7.5 7.5s-3.358 7.5-7.5 7.5z"/><path d="m356.794 31.775h-183.847c-4.143 0-7.5-3.357-7.5-7.5s3.357-7.5 7.5-7.5h183.847c4.143 0 7.5 3.357 7.5 7.5s-3.357 7.5-7.5 7.5z"/></g><path d="m35.964 48.549h440.073v24.744h-440.073z" fill="#cee3f4"/><path d="m152.921 73.293h-116.957v-24.744h92.213c13.666 0 24.744 11.079 24.744 24.744z" fill="#0065c6"/><path d="m104.147 53.451c0-1.653.086-3.285.228-4.902h-68.411v24.744h68.183z" fill="#0052a9"/><path d="m284.275 325.746h-56.551c-4.143 0-7.5-3.357-7.5-7.5s3.357-7.5 7.5-7.5h56.551c4.143 0 7.5 3.357 7.5 7.5 0 4.142-3.358 7.5-7.5 7.5z" fill="#b0d4ea"/><ellipse cx="121.498" cy="402.189" fill="#65d2fc" rx="54.299" ry="54.299" transform="matrix(.866 -.5 .5 .866 -184.817 114.632)"/><ellipse cx="256.396" cy="402.189" fill="#6edb9a" rx="54.299" ry="54.299" transform="matrix(.866 -.5 .5 .866 -166.744 182.081)"/><path d="m254.632 421.603c-3.338-2.147-6.347-4.524-8.616-6.772-.464-.483-10.286-10.863-13.036-23.789-.431-2.028-.517-3.913-.389-5.657-6.167-13.551-3.344-30.218-3.344-30.218-25.971 14.993-34.869 48.202-19.875 74.172 14.994 25.971 48.203 34.869 74.173 19.874-20.449-5.479-27.237-17.228-28.913-27.61z" fill="#71c994"/><ellipse cx="390.501" cy="401.889" fill="#e25ca5" rx="54.299" ry="54.299" transform="matrix(.866 -.5 .5 .866 -148.627 249.094)"/><path d="m417.651 448.913c-27.178-7.282-30.229-25.638-29.214-37.144.465-5.269-2.529-10.224-7.394-12.3-23.561-10.054-17.691-44.602-17.691-44.604-25.971 14.994-34.869 48.203-19.875 74.174 14.994 25.97 48.203 34.868 74.174 19.874z" fill="#dd3f95"/><path d="m422.011 376.839h-63.019c-2.965 0-5.391 2.426-5.391 5.391v39.919c0 2.965 2.426 5.391 5.391 5.391h63.019c2.965 0 5.391-2.426 5.391-5.391v-39.919c-.001-2.965-2.427-5.391-5.391-5.391z" fill="#cee3f4"/><path d="m397.281 403.892c-3.814 3.571-9.745 3.571-13.56 0l-2.139-2.002-26.046 24.386c.938.787 2.143 1.264 3.455 1.264h63.019c1.312 0 2.518-.477 3.455-1.264l-26.046-24.386z" fill="#ebf1f7"/><circle cx="255.97" cy="197.417" fill="#65d2fc" r="86.898"/><path d="m321.515 250.01c-76.854-23.225-93.259-57.635-109.426-91.719-18.324-4.018-13.558-24.464-13.063-26.4-18.35 15.932-29.953 39.43-29.953 65.64 0 47.992 38.906 86.898 86.898 86.898 27.712 0 52.393-12.973 68.305-33.175-.695-.751-1.724-.93-2.761-1.244z" fill="#33bafe"/><path d="m318.313 247.802c-9.696-5.467-19.555-9.515-30.402-12.017-4.941-4.941-6.194-14.309-6.42-20.864-2.579 3.004-5.285 5.516-7.871 7.524-5.038 3.913-11.256 6.038-17.659 6.038-6.404 0-12.621-2.125-17.659-6.038-2.586-2.008-5.293-4.521-7.871-7.524-.226 6.554-1.478 15.923-6.42 20.864-10.846 2.503-20.705 6.55-30.402 12.017-2.623 1.479-4.274 2.54-6.085 3.157 15.907 20.306 40.652 33.355 68.446 33.355 27.792 0 52.535-13.047 68.442-33.35-1.816-.616-3.469-1.679-6.099-3.162z" fill="#fca870"/><path d="m255.961 228.483c-6.404 0-12.621-2.125-17.659-6.038-2.586-2.008-5.293-4.521-7.871-7.524-.226 6.554-1.478 15.923-6.42 20.864-10.846 2.503-20.705 6.55-30.401 12.017-2.623 1.479-4.274 2.54-6.085 3.157 9.345 11.929 21.743 21.349 36.014 27.095 8.033-4.444 15.027-9.021 19.198-13.192 10.741-10.741 13.187-27.048 13.652-36.388-.142.002-.285.009-.428.009z" fill="#f9955f"/><path d="m318.313 246.527c-8.508-4.798-17.143-7.225-26.459-9.751-3.102 18.673-17.795 32.82-35.464 32.82-17.739 0-32.476-14.259-35.499-33.042-19.476 5.055-27.997 11.664-34.185 13.337 15.869 20.914 40.987 34.423 69.265 34.423 28.262 0 53.368-13.495 69.238-34.389-2.158-.556-3.889-1.702-6.896-3.398z" fill="#e779b5"/><path d="m220.891 236.554c-19.476 5.055-27.997 11.664-34.185 13.337 6.863 9.044 15.458 16.7 25.287 22.481l16.922-7.884c1.214-2.022 2.451-3.618 3.682-4.885-5.999-5.874-10.237-13.924-11.706-23.049z" fill="#e25ca5"/><path d="m304.272 158.815c-1.997-1.83-5.975-.903-7.695.218.377 2.346.398 4.747.073 7.117l-2.03 14.783c0 1.191-.038 2.361-.107 3.509 4.95 1.493 7.408-2.95 7.822-6 .178-1.313.47-2.606.874-3.869 1.318-4.11 6.067-11.173 1.063-15.758z" fill="#fca870"/><path d="m207.65 158.815c1.997-1.83 5.975-.903 7.695.218-.376 2.346-.398 4.747-.073 7.117l2.03 14.783c0 1.191.038 2.361.107 3.509-4.949 1.493-7.408-2.95-7.822-6-.178-1.313-.47-2.606-.874-3.869-1.317-4.11-6.066-11.173-1.063-15.758z" fill="#f9955f"/><path d="m247.423 94.126c-25.641 3.494-28.078 18.031-28.089 23.365-.003 1.118-.622 2.155-1.628 2.645-13.338 6.488-6.147 37.759-6.147 37.759 1.339.089 2.741.632 3.787 1.138.256-1.593.674-3.162 1.264-4.679.45-1.156 1.012-2.323 1.715-3.426 1.22-1.914 1.775-4.171 1.609-6.428-.479-6.524-.248-19.379 8.363-23.253 7.295-3.283 16.244-1.382 21.951.516 3.706 1.232 7.721 1.232 11.427 0 5.707-1.898 14.656-3.799 21.951-.516 8.586 3.864 8.841 16.656 8.367 23.197-.165 2.274.376 4.555 1.605 6.483.725 1.138 1.301 2.346 1.758 3.537.568 1.482.972 3.013 1.222 4.567 1.318-.638 3.202-1.334 4.813-1.106.197-6.838.828-14.209.828-14.209 7.599-37.214-27.188-53.352-54.796-49.59z" fill="#0052a9"/><path d="m247.423 94.126c-25.641 3.494-28.078 18.031-28.089 23.365-.003 1.118-.622 2.155-1.628 2.644-13.338 6.488-6.147 37.759-6.147 37.759 1.34.089 2.741.632 3.787 1.138.256-1.593.674-3.162 1.264-4.679.45-1.156 1.012-2.323 1.715-3.426 1.22-1.914 1.775-4.171 1.609-6.428-.479-6.524-.249-19.379 8.363-23.253 6.9-3.104 15.274-1.572 20.991.208l-.269-.812s-12.841-16.903 8.361-27.015c-3.365-.107-6.711.057-9.957.499z" fill="#003370"/><path d="m256.39 266.419c-3.33-5.146-6.612-7.849-6.612-7.849l-8.482 13.623c4.052 2.608 5.896 7.711 6.736 11.756.392.035.784.074 1.177.105 1.246-7.617 4.33-13.552 7.181-17.635z" fill="#c6237c"/><path d="m249.014 284.037c2.295.182 4.615.277 6.957.277 2.671 0 5.312-.127 7.921-.363.84-4.047 2.684-9.15 6.735-11.758l-8.482-13.623s-10.937 8.996-13.131 25.467z" fill="#dd3f95"/><path d="m250.042 258.453c-16.916-9.356-20.875-23.285-21.5-28.62-.111-.945-1.204-1.412-1.972-.849l-10.752 8.395c-.611.448-.904 1.221-.72 1.956 4.555 18.134 19.201 31.374 25.657 36.479 1.643 1.299 4.04.922 5.21-.816 1.654-2.458 3.993-5.934 5.924-8.803 1.802-2.678.978-6.179-1.847-7.742z" fill="#e25ca5"/><path d="m248.432 257.526v-.001l-.003-.002z" fill="#dd3f95"/><path d="m247.05 256.668c-14.401-9.26-17.921-21.829-18.509-26.834-.111-.945-1.204-1.412-1.971-.849l-10.752 8.395c-.611.448-.904 1.221-.72 1.956 2.533 10.084 8.187 18.652 13.817 25.152 7.126-11.863 15.012-9.453 18.135-7.82z" fill="#dd3f95"/><path d="m296.105 237.38-10.753-8.395c-.767-.563-1.861-.095-1.972.849-.626 5.335-4.584 19.264-21.5 28.62-2.826 1.563-3.649 5.063-1.846 7.742 1.931 2.869 4.27 6.345 5.924 8.803 1.169 1.738 3.566 2.115 5.209.816 6.456-5.104 21.102-18.345 25.657-36.479.186-.735-.108-1.508-.719-1.956z" fill="#e25ca5"/><path d="m294.186 150.553c-1.121-1.759-1.653-3.91-1.497-6.058.522-7.21.076-19.901-8.777-23.884-7.37-3.316-16.28-1.565-22.457.489-3.543 1.179-7.445 1.179-10.988 0-6.177-2.053-15.086-3.807-22.456-.489-8.87 3.991-9.304 16.713-8.773 23.94.319 4.347-1.812 5.783-3.279 9.549-3.413 8.769-.419 15.274.645 26.88.02 24.551 14.879 38.742 21.27 43.706 10.553 8.194 25.506 8.284 36.174 0 6.391-4.963 21.25-19.154 21.27-43.706l2.023-14.736c.816-5.938-.583-11.656-3.155-15.691z" fill="#f9bd91"/><path d="m255.944 224.687c-4.457-4.963-14.818-19.154-14.832-43.705-.742-11.606-2.83-18.111-.45-26.88 1.023-3.767 2.509-5.202 2.287-9.549-.37-7.209-.068-19.882 6.071-23.907-6.069-1.831-14.195-3.101-21.008-.033-8.87 3.991-9.304 16.712-8.773 23.94.319 4.347-1.812 5.783-3.279 9.549-3.413 8.769-.419 15.274.645 26.88.02 24.551 14.879 38.742 21.27 43.705 7.348 5.706 16.829 7.477 25.511 5.233-2.652-.982-5.191-2.726-7.442-5.233z" fill="#fca870"/><path d="m283.58 417.093c-14.623-6.088-13.823-5.745-13.992-5.831-4.467-2.346-7.49 1.958-7.828 2.156-1.195 1.184-12.858-5.738-16.854-16.217-.191-.5.253-.76 1.288-1.795 1.495-1.472 2.037-3.658 1.387-5.653-.886-2.721-3.159-6.774-6.317-15.131-1.601-3.845-6.815-3.143-9.294.917-.816 1.859-7.042 8.6-4.884 18.752 2.75 12.926 12.572 23.306 13.036 23.789 6.461 6.402 18.877 13.906 28.045 13.906 7.524 0 11.969-3.96 14.304-5.077 3.981-2.34 5.304-8.073 1.109-9.816z" fill="#fff"/><path d="m422.011 376.839h-63.019c-1.312 0-2.518.477-3.455 1.264l28.185 26.389c3.814 3.571 9.745 3.571 13.56 0l28.185-26.389c-.939-.787-2.144-1.264-3.456-1.264z" fill="#fff"/><path d="m148.647 449.213c-27.177-7.282-30.229-25.638-29.214-37.144.465-5.269-2.53-10.224-7.395-12.3-23.56-10.053-17.691-44.602-17.69-44.604-25.971 14.994-34.869 48.203-19.875 74.174 14.995 25.97 48.204 34.868 74.174 19.874z" fill="#33bafe"/><path d="m132.143 373.436h-21.29c-13.498 0-24.543 11.044-24.543 24.543 0 13.499 11.044 24.543 24.543 24.543h7.615c1.787 0 3.235 1.448 3.235 3.235v4.489c0 .626.763.933 1.196.481l6.909-7.208c.61-.637 1.454-.996 2.335-.996 13.498 0 24.543-11.044 24.543-24.543 0-13.5-11.044-24.544-24.543-24.544z" fill="#fff"/><path d="m104.147 397.455c0-10.005 5.145-18.855 12.901-24.019h-6.195c-13.498 0-24.543 11.044-24.543 24.543 0 13.499 11.044 24.542 24.543 24.542h7.615c.118 0 .229.022.343.035-8.73-4.943-14.664-14.356-14.664-25.101z" fill="#ebf1f7"/><path d="m250.642 406.167c-2.309-2.505-4.432-5.544-5.738-8.966-.191-.501.253-.76 1.288-1.795 1.495-1.472 2.037-3.658 1.387-5.653-.886-2.721-3.159-6.774-6.317-15.131-1.601-3.845-6.815-3.143-9.294.917-.816 1.859-7.042 8.6-4.884 18.752 2.438 11.461 10.433 20.916 12.537 23.248-2.116-6.785 4.112-13.286 11.021-11.372z" fill="#ebf1f7"/></svg>