<svg id="Capa_1" enable-background="new 0 0 497 497" height="512" viewBox="0 0 497 497" width="512" xmlns="http://www.w3.org/2000/svg"><g><path d="m437 45-188.5 144.5h218.5v-144.5z" fill="#608ebf"/><path d="m30 45h407v144.5h-407z" fill="#60b5d6"/><path d="m467 159.5-90 150 90 150h22.5c4.142 0 7.5-3.358 7.5-7.5v-285c0-4.142-3.358-7.5-7.5-7.5z" fill="#fbf0a8"/><path d="m0 167v285c0 4.142 3.358 7.5 7.5 7.5h459.5v-300h-459.5c-4.142 0-7.5 3.358-7.5 7.5z" fill="#fffbdb"/><path d="m437 37.5-60 45.303h60c11.26-8.632 18.235-13.979 18.235-13.979 7.146-5.483 11.765-14.112 11.765-23.824 0-4.142-3.358-7.5-7.5-7.5z" fill="#60b5d6"/><path d="m37.5 37.5c-4.142 0-7.5 3.358-7.5 7.5 0 9.712 4.619 18.341 11.775 23.824-.011 0 188.489 144.5 188.489 144.5 5.063 3.871 11.379 6.176 18.235 6.176s13.172-2.305 18.225-6.176c.009 0 122.98-94.266 170.275-130.521v-45.303z" fill="#4dd0eb"/><g fill="#485f94"><path d="m215.219 247.694c-.026-.069-.053-.137-.081-.204-1.372-3.336-4.587-5.49-8.193-5.49-3.618.003-6.834 2.164-8.201 5.505-.023.057-.046.113-.067.17l-22.53 59.155c-1.474 3.871.468 8.204 4.339 9.678 3.872 1.477 8.204-.469 9.678-4.339l3.771-9.902h25.845l3.729 9.881c1.134 3.003 3.987 4.854 7.019 4.854.88 0 1.775-.156 2.646-.485 3.875-1.462 5.832-5.79 4.369-9.665zm-15.569 39.573 7.269-19.085 7.202 19.085z"/><path d="m326.385 317c4.143 0 7.5-3.358 7.5-7.5v-15.536l21.698 20.934c1.455 1.404 3.332 2.103 5.206 2.103 1.965 0 3.927-.767 5.398-2.292 2.876-2.981 2.791-7.729-.19-10.605l-26.754-25.811 24.492-22.513c3.05-2.803 3.25-7.547.446-10.597-2.803-3.049-7.548-3.249-10.597-.446l-19.7 18.108v-13.345c0-4.142-3.357-7.5-7.5-7.5s-7.5 3.358-7.5 7.5v60c.001 4.142 3.358 7.5 7.501 7.5z"/><path d="m157.906 242c-4.142 0-7.5 3.358-7.5 7.5v21.471h-26.521v-21.471c0-4.142-3.358-7.5-7.5-7.5s-7.5 3.358-7.5 7.5v60c0 4.142 3.358 7.5 7.5 7.5s7.5-3.358 7.5-7.5v-23.529h26.521v23.529c0 4.142 3.358 7.5 7.5 7.5s7.5-3.358 7.5-7.5v-60c0-4.142-3.358-7.5-7.5-7.5z"/><path d="m93.135 242h-33.135c-4.142 0-7.5 3.358-7.5 7.5s3.358 7.5 7.5 7.5h9.001v52.5c0 4.142 3.358 7.5 7.5 7.5s7.5-3.358 7.5-7.5v-52.5h9.134c4.142 0 7.5-3.358 7.5-7.5s-3.358-7.5-7.5-7.5z"/><path d="m255.777 317c4.143 0 7.5-3.358 7.5-7.5v-35.829l27.686 40.091c1.427 2.066 3.755 3.239 6.173 3.239.743 0 1.494-.111 2.231-.34 3.133-.977 5.268-3.878 5.268-7.16v-59.888c0-4.142-3.357-7.5-7.5-7.5s-7.5 3.358-7.5 7.5v35.829l-27.686-40.091c-1.864-2.701-5.266-3.874-8.404-2.898-3.133.977-5.268 3.878-5.268 7.16v59.887c0 4.142 3.358 7.5 7.5 7.5z"/><path d="m297.132 333.366c-3.472-2.258-8.117-1.277-10.377 2.194l-12.732 19.559-12.877-19.72c-2.266-3.468-6.913-4.444-10.38-2.179-3.468 2.265-4.444 6.912-2.179 10.38l17.946 27.482v28.418c0 4.142 3.357 7.5 7.5 7.5s7.5-3.358 7.5-7.5v-28.423l17.793-27.333c2.259-3.472 1.278-8.118-2.194-10.378z"/><path d="m437 332c-4.143 0-7.5 3.358-7.5 7.5v41.243c0 2.874-.816 6.584-7.181 9.79-1.96.987-4.087 1.467-6.504 1.467-2.674-.004-4.974-.652-7.056-1.983-4.939-3.155-5.951-5.972-5.951-9.23v-41.287c0-4.142-3.357-7.5-7.5-7.5s-7.5 3.358-7.5 7.5v41.287c0 9.054 4.332 16.413 12.874 21.87 4.497 2.875 9.573 4.336 15.087 4.344 4.793 0 9.252-1.033 13.297-3.07 12.756-6.425 15.434-16.155 15.434-23.187v-41.244c0-4.142-3.357-7.5-7.5-7.5z"/><path d="m338.747 332c-20.678 0-37.5 16.822-37.5 37.5s16.822 37.5 37.5 37.5 37.5-16.822 37.5-37.5-16.822-37.5-37.5-37.5zm0 60c-12.406 0-22.5-10.093-22.5-22.5s10.094-22.5 22.5-22.5 22.5 10.093 22.5 22.5-10.094 22.5-22.5 22.5z"/></g></g></svg>